<svg xmlns="http://www.w3.org/2000/svg" xmlns:xlink="http://www.w3.org/1999/xlink" width="500" zoomAndPan="magnify" viewBox="0 0 375 374.999991" height="500" preserveAspectRatio="xMidYMid meet" version="1.0"><defs><g/><clipPath id="635a1d6394"><rect x="0" width="40" y="0" height="91"/></clipPath><clipPath id="6a1b6860b7"><rect x="0" width="45" y="0" height="93"/></clipPath><clipPath id="4316bf4c4e"><path d="M 203.390625 177.25 L 208.992188 177.25 L 208.992188 182.855469 L 203.390625 182.855469 Z M 203.390625 177.25 " clip-rule="nonzero"/></clipPath><clipPath id="ecaea31400"><path d="M 0.390625 0.25 L 5.992188 0.25 L 5.992188 5.855469 L 0.390625 5.855469 Z M 0.390625 0.25 " clip-rule="nonzero"/></clipPath><clipPath id="d7475fd444"><rect x="0" width="6" y="0" height="6"/></clipPath><clipPath id="3621e8fcce"><path d="M 210.707031 177.25 L 216.3125 177.25 L 216.3125 182.855469 L 210.707031 182.855469 Z M 210.707031 177.25 " clip-rule="nonzero"/></clipPath><clipPath id="0f676ea574"><path d="M 0.707031 0.25 L 6.3125 0.25 L 6.3125 5.855469 L 0.707031 5.855469 Z M 0.707031 0.25 " clip-rule="nonzero"/></clipPath><clipPath id="461dfd9725"><rect x="0" width="7" y="0" height="6"/></clipPath><clipPath id="4f55062b8a"><path d="M 203.390625 188.457031 L 208.992188 188.457031 L 208.992188 194.0625 L 203.390625 194.0625 Z M 203.390625 188.457031 " clip-rule="nonzero"/></clipPath><clipPath id="2238ea3453"><path d="M 0.390625 0.457031 L 5.992188 0.457031 L 5.992188 6.0625 L 0.390625 6.0625 Z M 0.390625 0.457031 " clip-rule="nonzero"/></clipPath><clipPath id="c165944fdd"><rect x="0" width="6" y="0" height="7"/></clipPath><clipPath id="bc31ccb7c9"><path d="M 210.707031 188.457031 L 216.3125 188.457031 L 216.3125 194.0625 L 210.707031 194.0625 Z M 210.707031 188.457031 " clip-rule="nonzero"/></clipPath><clipPath id="e8cb9ee103"><path d="M 0.707031 0.457031 L 6.3125 0.457031 L 6.3125 6.0625 L 0.707031 6.0625 Z M 0.707031 0.457031 " clip-rule="nonzero"/></clipPath><clipPath id="e84789312b"><rect x="0" width="7" y="0" height="7"/></clipPath><clipPath id="d0f6aacf9e"><path d="M 114.761719 121.175781 L 237.761719 121.175781 L 237.761719 244.175781 L 114.761719 244.175781 Z M 114.761719 121.175781 " clip-rule="nonzero"/></clipPath><clipPath id="5284358630"><rect x="0" width="45" y="0" height="93"/></clipPath><clipPath id="8e0bc16b3a"><rect x="0" width="40" y="0" height="91"/></clipPath></defs><g transform="matrix(1, 0, 0, 1, 164, 149)"><g clip-path="url(#635a1d6394)"><g fill="#ffc700" fill-opacity="1"><g transform="translate(0.914168, 70.433083)"><g><path d="M 32.921875 0 L 5.90625 0 L 5.90625 -46.90625 L 32.921875 -46.90625 L 32.921875 -38.75 L 15.84375 -38.75 L 15.84375 -28.453125 L 31.734375 -28.453125 L 31.734375 -20.3125 L 15.84375 -20.3125 L 15.84375 -8.21875 L 32.921875 -8.21875 Z M 32.921875 0 "/></g></g></g></g></g><g transform="matrix(1, 0, 0, 1, 160, 166)"><g clip-path="url(#6a1b6860b7)"><g fill="#ffc700" fill-opacity="1"><g transform="translate(0.557489, 71.632445)"><g><path d="M 26.421875 -40.203125 C 22.585938 -40.203125 19.617188 -38.757812 17.515625 -35.875 C 15.421875 -33 14.375 -28.992188 14.375 -23.859375 C 14.375 -13.160156 18.390625 -7.8125 26.421875 -7.8125 C 29.785156 -7.8125 33.863281 -8.65625 38.65625 -10.34375 L 38.65625 -1.8125 C 34.71875 -0.164062 30.320312 0.65625 25.46875 0.65625 C 18.488281 0.65625 13.148438 -1.457031 9.453125 -5.6875 C 5.753906 -9.925781 3.90625 -16.003906 3.90625 -23.921875 C 3.90625 -28.910156 4.8125 -33.28125 6.625 -37.03125 C 8.445312 -40.78125 11.054688 -43.65625 14.453125 -45.65625 C 17.859375 -47.65625 21.847656 -48.65625 26.421875 -48.65625 C 31.078125 -48.65625 35.753906 -47.53125 40.453125 -45.28125 L 37.171875 -37.015625 C 35.378906 -37.867188 33.578125 -38.613281 31.765625 -39.25 C 29.953125 -39.882812 28.171875 -40.203125 26.421875 -40.203125 Z M 26.421875 -40.203125 "/></g></g></g></g></g><path stroke-linecap="butt" transform="matrix(0, 0.75, -0.75, 0, 201.725996, 169.223588)" fill="none" stroke-linejoin="miter" d="M -0.00124245 2.999245 L 99.451889 2.999245 " stroke="#ffffff" stroke-width="6" stroke-opacity="1" stroke-miterlimit="4"/><path stroke-linecap="butt" transform="matrix(0.75, 0, 0, 0.75, 197.242828, 166.968944)" fill="none" stroke-linejoin="miter" d="M -0.000853397 2.999741 L 33.686649 2.999741 " stroke="#ffffff" stroke-width="6" stroke-opacity="1" stroke-miterlimit="4"/><path stroke-linecap="butt" transform="matrix(0, 0.75, -0.75, 0, 222.509755, 169.223588)" fill="none" stroke-linejoin="miter" d="M -0.00124245 3.00259 L 99.451889 3.00259 " stroke="#ffffff" stroke-width="6" stroke-opacity="1" stroke-miterlimit="4"/><g clip-path="url(#4316bf4c4e)"><g transform="matrix(1, 0, 0, 1, 203, 177)"><g clip-path="url(#d7475fd444)"><g clip-path="url(#ecaea31400)"><path fill="#ffffff" d="M 0.390625 0.25 L 5.992188 0.25 L 5.992188 5.855469 L 0.390625 5.855469 Z M 0.390625 0.25 " fill-opacity="1" fill-rule="nonzero"/></g></g></g></g><g clip-path="url(#3621e8fcce)"><g transform="matrix(1, 0, 0, 1, 210, 177)"><g clip-path="url(#461dfd9725)"><g clip-path="url(#0f676ea574)"><path fill="#ffffff" d="M 0.707031 0.25 L 6.3125 0.25 L 6.3125 5.855469 L 0.707031 5.855469 Z M 0.707031 0.25 " fill-opacity="1" fill-rule="nonzero"/></g></g></g></g><g clip-path="url(#4f55062b8a)"><g transform="matrix(1, 0, 0, 1, 203, 188)"><g clip-path="url(#c165944fdd)"><g clip-path="url(#2238ea3453)"><path fill="#ffffff" d="M 0.390625 0.457031 L 5.992188 0.457031 L 5.992188 6.0625 L 0.390625 6.0625 Z M 0.390625 0.457031 " fill-opacity="1" fill-rule="nonzero"/></g></g></g></g><g clip-path="url(#bc31ccb7c9)"><g transform="matrix(1, 0, 0, 1, 210, 188)"><g clip-path="url(#e84789312b)"><g clip-path="url(#e8cb9ee103)"><path fill="#ffffff" d="M 0.707031 0.457031 L 6.3125 0.457031 L 6.3125 6.0625 L 0.707031 6.0625 Z M 0.707031 0.457031 " fill-opacity="1" fill-rule="nonzero"/></g></g></g></g><g clip-path="url(#d0f6aacf9e)"><path fill="#ffffff" d="M 238.113281 144.304688 L 238.113281 136.597656 L 233.277344 135.246094 L 163.324219 123.050781 L 163.324219 121.175781 L 147.785156 121.175781 L 147.785156 122.945312 L 115.308594 138.621094 L 114.761719 139.488281 L 114.761719 144.304688 L 147.785156 144.304688 L 147.785156 236.820312 L 142.117188 236.820312 L 131.757812 244.527344 L 178.378906 244.527344 L 168.019531 236.820312 L 163.324219 236.820312 L 163.324219 144.304688 L 227.429688 144.304688 L 227.429688 193.71875 C 226.851562 194.054688 226.457031 194.667969 226.457031 195.378906 C 226.457031 196.09375 226.851562 196.707031 227.429688 197.039062 L 227.429688 200.105469 L 228.398438 200.105469 C 230.542969 200.105469 232.285156 201.835938 232.285156 203.960938 C 232.285156 206.089844 230.542969 207.820312 228.398438 207.820312 C 226.253906 207.820312 224.511719 206.089844 224.511719 203.960938 C 224.511719 203.429688 224.078125 203 223.539062 203 C 223.003906 203 222.570312 203.429688 222.570312 203.960938 C 222.570312 207.152344 225.183594 209.746094 228.398438 209.746094 C 231.613281 209.746094 234.226562 207.152344 234.226562 203.960938 C 234.226562 201.101562 232.125 198.71875 229.371094 198.257812 L 229.371094 197.039062 C 229.949219 196.707031 230.34375 196.09375 230.34375 195.378906 C 230.34375 194.667969 229.949219 194.054688 229.371094 193.71875 L 229.371094 144.304688 Z M 151.667969 129.851562 L 151.667969 129.453125 L 154.167969 131.890625 L 151.667969 134.328125 Z M 151.667969 144.304688 L 151.667969 141.015625 L 154.167969 143.453125 L 151.667969 145.894531 Z M 151.667969 152.582031 L 154.167969 155.019531 L 151.667969 157.457031 Z M 151.667969 164.144531 L 154.167969 166.582031 L 151.667969 169.023438 Z M 151.667969 175.707031 L 154.167969 178.148438 L 151.667969 180.585938 Z M 151.667969 187.273438 L 154.167969 189.710938 L 151.667969 192.148438 Z M 151.667969 198.835938 L 154.167969 201.277344 L 151.667969 203.714844 Z M 151.667969 210.402344 L 154.167969 212.839844 L 151.667969 215.277344 Z M 151.667969 221.964844 L 154.167969 224.40625 L 151.667969 226.84375 Z M 147.785156 140.449219 L 126.335938 140.449219 L 147.785156 134.851562 Z M 147.785156 130.863281 L 121.753906 137.660156 L 147.785156 125.140625 Z M 153.296875 236.820312 L 151.667969 236.820312 L 151.667969 233.53125 L 154.167969 235.96875 Z M 159.441406 236.820312 L 157.8125 236.820312 L 156.941406 235.96875 L 159.441406 233.53125 Z M 159.441406 230.828125 L 155.554688 234.617188 L 151.667969 230.828125 L 151.667969 229.546875 L 155.554688 225.753906 L 159.441406 229.546875 Z M 159.441406 226.84375 L 156.941406 224.40625 L 159.441406 221.964844 Z M 159.441406 219.261719 L 155.554688 223.054688 L 151.667969 219.261719 L 151.667969 217.980469 L 155.554688 214.191406 L 159.441406 217.980469 Z M 159.441406 215.277344 L 156.941406 212.839844 L 159.441406 210.402344 Z M 159.441406 207.699219 L 155.554688 211.488281 L 151.667969 207.699219 L 151.667969 206.417969 L 155.554688 202.628906 L 159.441406 206.417969 Z M 159.441406 203.714844 L 156.941406 201.277344 L 159.441406 198.835938 Z M 159.441406 196.132812 L 155.554688 199.925781 L 151.667969 196.132812 L 151.667969 194.851562 L 155.554688 191.0625 L 159.441406 194.851562 Z M 159.441406 192.148438 L 156.941406 189.710938 L 159.441406 187.273438 Z M 159.441406 184.570312 L 155.554688 188.359375 L 151.667969 184.570312 L 151.667969 183.289062 L 155.554688 179.5 L 159.441406 183.289062 Z M 159.441406 180.585938 L 156.941406 178.148438 L 159.441406 175.707031 Z M 159.441406 173.007812 L 155.554688 176.796875 L 151.667969 173.007812 L 151.667969 171.726562 L 155.554688 167.933594 L 159.441406 171.726562 Z M 159.441406 169.023438 L 156.941406 166.582031 L 159.441406 164.144531 Z M 159.441406 161.441406 L 155.554688 165.230469 L 151.667969 161.441406 L 151.667969 160.160156 L 155.554688 156.371094 L 159.441406 160.160156 Z M 159.441406 157.457031 L 156.941406 155.019531 L 159.441406 152.582031 Z M 159.441406 149.878906 L 155.554688 153.667969 L 151.667969 149.878906 L 151.667969 148.597656 L 155.554688 144.804688 L 159.441406 148.597656 Z M 159.441406 145.894531 L 156.941406 143.453125 L 159.441406 141.015625 Z M 159.441406 138.3125 L 155.554688 142.105469 L 151.667969 138.3125 L 151.667969 137.03125 L 155.554688 133.242188 L 159.441406 137.03125 Z M 159.441406 134.328125 L 156.941406 131.890625 L 159.441406 129.453125 Z M 159.441406 126.75 L 155.554688 130.539062 L 151.667969 126.75 L 151.667969 125.03125 L 159.441406 125.03125 Z M 163.324219 125.046875 L 221.125 135.121094 L 163.324219 130.101562 Z M 164.296875 140.449219 L 164.296875 134.058594 L 234.226562 140.128906 L 234.226562 140.449219 Z M 164.296875 140.449219 " fill-opacity="1" fill-rule="nonzero"/></g><path stroke-linecap="butt" transform="matrix(0.75, 0, 0, 0.75, 106.763018, 242.281155)" fill="none" stroke-linejoin="miter" d="M -0.00173272 3.000126 L 215.300365 3.000126 " stroke="#ffffff" stroke-width="6" stroke-opacity="1" stroke-miterlimit="4"/><g transform="matrix(1, 0, 0, 1, 160, 166)"><g clip-path="url(#5284358630)"><g fill="#000000" fill-opacity="1"><g transform="translate(0.544745, 71.632445)"><g><path d="M 26.414062 -38.933594 C 23.011719 -38.933594 20.386719 -37.667969 18.539062 -35.136719 C 16.601562 -32.480469 15.632812 -28.722656 15.632812 -23.855469 C 15.632812 -18.785156 16.550781 -15.027344 18.390625 -12.578125 C 20.144531 -10.238281 22.820312 -9.070312 26.414062 -9.070312 C 29.640625 -9.070312 33.578125 -9.886719 38.234375 -11.523438 L 39.914062 -12.113281 L 39.914062 -0.964844 L 39.136719 -0.640625 C 35.042969 1.0625 30.484375 1.917969 25.460938 1.917969 C 18.101562 1.917969 12.449219 -0.34375 8.5 -4.863281 C 4.597656 -9.335938 2.644531 -15.6875 2.644531 -23.921875 C 2.644531 -29.101562 3.59375 -33.652344 5.492188 -37.578125 C 7.421875 -41.558594 10.195312 -44.613281 13.816406 -46.742188 C 17.414062 -48.863281 21.613281 -49.921875 26.414062 -49.921875 C 31.265625 -49.921875 36.125 -48.753906 41 -46.417969 L 42.0625 -45.910156 L 37.851562 -35.296875 L 36.632812 -35.875 C 34.882812 -36.707031 33.121094 -37.433594 31.347656 -38.054688 C 29.664062 -38.640625 28.019531 -38.933594 26.414062 -38.933594 Z M 26.414062 -41.453125 C 28.304688 -41.453125 30.226562 -41.113281 32.175781 -40.433594 C 34.035156 -39.785156 35.882812 -39.023438 37.71875 -38.148438 L 37.175781 -37.011719 L 36.003906 -37.476562 L 39.285156 -45.746094 L 40.457031 -45.28125 L 39.914062 -44.144531 C 35.382812 -46.316406 30.882812 -47.398438 26.414062 -47.398438 C 22.070312 -47.398438 18.296875 -46.457031 15.09375 -44.570312 C 11.910156 -42.699219 9.46875 -40 7.761719 -36.480469 C 6.03125 -32.902344 5.164062 -28.714844 5.164062 -23.921875 C 5.164062 -16.316406 6.910156 -10.515625 10.398438 -6.523438 C 13.84375 -2.578125 18.867188 -0.605469 25.460938 -0.605469 C 30.148438 -0.605469 34.386719 -1.390625 38.167969 -2.96875 L 38.652344 -1.804688 L 37.390625 -1.804688 L 37.390625 -10.335938 L 38.652344 -10.335938 L 39.070312 -9.148438 C 34.144531 -7.414062 29.925781 -6.550781 26.414062 -6.550781 C 21.980469 -6.550781 18.632812 -8.054688 16.375 -11.0625 C 14.199219 -13.960938 13.113281 -18.226562 13.113281 -23.855469 C 13.113281 -29.269531 14.242188 -33.523438 16.503906 -36.621094 C 18.855469 -39.84375 22.160156 -41.453125 26.414062 -41.453125 Z M 26.414062 -41.453125 "/></g></g></g></g></g><g transform="matrix(1, 0, 0, 1, 164, 149)"><g clip-path="url(#8e0bc16b3a)"><g fill="#000000" fill-opacity="1"><g transform="translate(0.914168, 70.433083)"><g><path d="M 32.917969 1.230469 L 4.671875 1.230469 L 4.671875 -48.136719 L 34.148438 -48.136719 L 34.148438 -37.523438 L 15.847656 -37.523438 L 15.847656 -38.757812 L 17.082031 -38.757812 L 17.082031 -28.457031 L 15.847656 -28.457031 L 15.847656 -29.691406 L 32.960938 -29.691406 L 32.960938 -19.078125 L 15.847656 -19.078125 L 15.847656 -20.308594 L 17.082031 -20.308594 L 17.082031 -8.214844 L 15.847656 -8.214844 L 15.847656 -9.445312 L 34.148438 -9.445312 L 34.148438 1.230469 Z M 32.917969 -1.230469 L 32.917969 0 L 31.683594 0 L 31.683594 -8.214844 L 32.917969 -8.214844 L 32.917969 -6.980469 L 14.617188 -6.980469 L 14.617188 -21.539062 L 31.730469 -21.539062 L 31.730469 -20.308594 L 30.5 -20.308594 L 30.5 -28.457031 L 31.730469 -28.457031 L 31.730469 -27.226562 L 14.617188 -27.226562 L 14.617188 -39.988281 L 32.917969 -39.988281 L 32.917969 -38.757812 L 31.683594 -38.757812 L 31.683594 -46.90625 L 32.917969 -46.90625 L 32.917969 -45.671875 L 5.902344 -45.671875 L 5.902344 -46.90625 L 7.136719 -46.90625 L 7.136719 0 L 5.902344 0 L 5.902344 -1.230469 Z M 32.917969 -1.230469 "/></g></g></g></g></g></svg>