<?xml version="1.0" encoding="UTF-8"?>
<!DOCTYPE svg PUBLIC "-//W3C//DTD SVG 1.1//EN" "http://www.w3.org/Graphics/SVG/1.1/DTD/svg11.dtd">
<!-- Creator: CorelDRAW 2020 (64 Bit) -->
<svg xmlns="http://www.w3.org/2000/svg" xml:space="preserve" width="297mm" height="210mm" version="1.1" style="shape-rendering:geometricPrecision; text-rendering:geometricPrecision; image-rendering:optimizeQuality; fill-rule:evenodd; clip-rule:evenodd"
viewBox="0 0 29700 21000"
 xmlns:xlink="http://www.w3.org/1999/xlink"
 xmlns:xodm="http://www.corel.com/coreldraw/odm/2003">
 <defs>
  <style type="text/css">
   <![CDATA[
    .str0 {stroke:black;stroke-width:20;stroke-miterlimit:22.9256}
    .fil1 {fill:black}
    .fil0 {fill:#EDE215}
   ]]>
  </style>
 </defs>
 <g id="Camada_x0020_1">
  <metadata id="CorelCorpID_0Corel-Layer"/>
  <g id="_1307019771696">
   <g>
    <path class="fil0" d="M13408.45 12680.54c290.15,-357.83 810.26,-319.52 1189.01,-139.33 55.13,26.22 8.88,55.54 -31.4,105.22 -26.86,33.12 -192.2,253.22 -222.45,255.77 -59.96,5.06 -174.28,-95.97 -395.55,-42.87 -248.47,59.62 -274.27,254.05 -466.76,395.93 -303.58,223.76 -302.34,194.68 -734.42,394.41 -34.26,15.84 -17.82,-26.11 -11.48,-64 5.19,-31.08 56,-380.79 58.73,-384.45 2.02,-2.71 117.29,-60.92 132.11,-69.8 193.34,-115.82 341.18,-277.98 482.21,-450.88z"/>
    <path class="fil0" d="M12590.36 12434.57c228.16,-53.55 429.01,-39.75 649.24,40.33 64.47,24.25 99.1,44.96 117.6,56.07 18.5,11.11 20.88,12.63 -29.81,68.08 -50.69,55.45 -154.44,164.84 -205.03,220.06 -50.59,55.22 -48.03,56.26 -80.75,50.21 -327.14,-52.71 -600.65,20.79 -724.43,358.25 -193.99,528.86 418.73,1007.8 904.5,623.49 110.45,-87.38 191.39,-151.15 340.97,-100.13 159.55,54.42 205.2,248.5 514.07,238.86 53.43,-1.67 266.92,-48.51 283.23,-42.12 25.33,9.92 272.69,309.27 270.32,340.07 -3.93,51.14 -326.04,137.18 -383.33,144.93 -219.85,29.76 -507.46,-27.57 -700.76,-135.89 -90.81,-50.88 -125.58,-15.84 -220.4,30.93 -292.49,144.27 -534.2,160.34 -844.3,47.7 -616.52,-223.94 -823.61,-1048.2 -437.76,-1561.79 140.52,-187.03 320.27,-317.06 546.64,-379.05z"/>
   </g>
   <g>
    <path class="fil1 str0" d="M13458.45 12610.54c290.15,-357.83 810.26,-319.52 1189.01,-139.33 55.13,26.22 8.88,55.54 -31.4,105.22 -26.86,33.12 -192.2,253.22 -222.45,255.77 -59.96,5.06 -174.28,-95.97 -395.55,-42.87 -248.47,59.62 -274.27,254.05 -466.76,395.93 -303.58,223.76 -302.34,194.68 -734.42,394.41 -34.26,15.84 -17.82,-26.11 -11.48,-64 5.19,-31.08 56,-380.79 58.73,-384.45 2.02,-2.71 117.29,-60.92 132.11,-69.8 193.34,-115.82 341.18,-277.98 482.21,-450.88z"/>
    <path class="fil1 str0" d="M12640.36 12364.57c228.16,-53.55 429.01,-39.75 649.24,40.33 64.47,24.25 99.1,44.96 117.6,56.07 18.5,11.11 20.88,12.63 -29.81,68.08 -50.69,55.45 -154.44,164.84 -205.03,220.06 -50.59,55.22 -48.03,56.26 -80.75,50.21 -327.14,-52.71 -600.65,20.79 -724.43,358.25 -193.99,528.86 418.73,1007.8 904.5,623.49 110.45,-87.38 191.39,-151.15 340.97,-100.13 159.55,54.42 205.2,248.5 514.07,238.86 53.43,-1.67 266.92,-48.51 283.23,-42.12 25.33,9.92 272.69,309.27 270.32,340.07 -3.93,51.14 -326.04,137.18 -383.33,144.93 -219.85,29.76 -507.46,-27.57 -700.76,-135.89 -90.81,-50.88 -125.58,-15.84 -220.4,30.93 -292.49,144.27 -534.2,160.34 -844.3,47.7 -616.52,-223.94 -823.61,-1048.2 -437.76,-1561.79 140.52,-187.03 320.27,-317.06 546.64,-379.05z"/>
   </g>
  </g>
  <g id="_1307019769632">
   <g>
    <path class="fil1 str0" d="M16948.64 12748.73c290.15,-357.83 810.26,-319.52 1189.01,-139.33 55.13,26.22 8.88,55.54 -31.4,105.22 -26.86,33.12 -192.2,253.22 -222.45,255.77 -59.96,5.06 -174.28,-95.97 -395.55,-42.87 -248.47,59.62 -274.27,254.05 -466.76,395.93 -303.58,223.76 -302.34,194.68 -734.42,394.41 -34.26,15.84 -17.82,-26.11 -11.48,-64 5.19,-31.08 56,-380.79 58.73,-384.45 2.02,-2.71 117.29,-60.92 132.11,-69.8 193.34,-115.82 341.18,-277.98 482.21,-450.88z"/>
    <path class="fil1 str0" d="M16130.55 12502.76c228.16,-53.55 429.01,-39.75 649.24,40.33 64.47,24.25 99.1,44.96 117.6,56.07 18.5,11.11 20.88,12.63 -29.81,68.08 -50.69,55.45 -154.44,164.84 -205.03,220.06 -50.59,55.22 -48.03,56.26 -80.75,50.21 -327.14,-52.71 -600.65,20.79 -724.43,358.25 -193.99,528.86 418.73,1007.8 904.5,623.49 110.45,-87.38 191.39,-151.15 340.97,-100.13 159.55,54.42 205.2,248.5 514.07,238.86 53.43,-1.67 266.92,-48.51 283.23,-42.12 25.33,9.92 272.69,309.27 270.32,340.07 -3.93,51.14 -326.04,137.18 -383.33,144.93 -219.85,29.76 -507.46,-27.57 -700.76,-135.89 -90.81,-50.88 -125.58,-15.84 -220.4,30.93 -292.49,144.27 -534.2,160.34 -844.3,47.7 -616.52,-223.94 -823.61,-1048.2 -437.76,-1561.79 140.52,-187.03 320.27,-317.06 546.64,-379.05z"/>
   </g>
   <g>
    <path class="fil0" d="M16948.64 12718.73c290.15,-357.83 810.26,-319.52 1189.01,-139.33 55.13,26.22 8.88,55.54 -31.4,105.22 -26.86,33.12 -192.2,253.22 -222.45,255.77 -59.96,5.06 -174.28,-95.97 -395.55,-42.87 -248.47,59.62 -274.27,254.05 -466.76,395.93 -303.58,223.76 -302.34,194.68 -734.42,394.41 -34.26,15.84 -17.82,-26.11 -11.48,-64 5.19,-31.08 56,-380.79 58.73,-384.45 2.02,-2.71 117.29,-60.92 132.11,-69.8 193.34,-115.82 341.18,-277.98 482.21,-450.88z"/>
    <path class="fil0" d="M16130.55 12472.76c228.16,-53.55 429.01,-39.75 649.24,40.33 64.47,24.25 99.1,44.96 117.6,56.07 18.5,11.11 20.88,12.63 -29.81,68.08 -50.69,55.45 -154.44,164.84 -205.03,220.06 -50.59,55.22 -48.03,56.26 -80.75,50.21 -327.14,-52.71 -600.65,20.79 -724.43,358.25 -193.99,528.86 418.73,1007.8 904.5,623.49 110.45,-87.38 191.39,-151.15 340.97,-100.13 159.55,54.42 205.2,248.5 514.07,238.86 53.43,-1.67 266.92,-48.51 283.23,-42.12 25.33,9.92 272.69,309.27 270.32,340.07 -3.93,51.14 -326.04,137.18 -383.33,144.93 -219.85,29.76 -507.46,-27.57 -700.76,-135.89 -90.81,-50.88 -125.58,-15.84 -220.4,30.93 -292.49,144.27 -534.2,160.34 -844.3,47.7 -616.52,-223.94 -823.61,-1048.2 -437.76,-1561.79 140.52,-187.03 320.27,-317.06 546.64,-379.05z"/>
   </g>
  </g>
  <g id="_1307019769584">
   <path class="fil0" d="M13433.45 15484.86c290.15,-357.83 810.26,-319.52 1189.01,-139.33 55.13,26.22 8.88,55.54 -31.4,105.22 -26.86,33.12 -192.2,253.22 -222.45,255.77 -59.96,5.06 -174.28,-95.97 -395.55,-42.87 -248.47,59.62 -274.27,254.05 -466.76,395.93 -303.58,223.76 -302.34,194.68 -734.42,394.41 -34.26,15.84 -17.82,-26.11 -11.48,-64 5.19,-31.08 56,-380.79 58.73,-384.45 2.02,-2.71 117.29,-60.92 132.11,-69.8 193.34,-115.82 341.18,-277.98 482.21,-450.88z"/>
   <path class="fil0" d="M12615.36 15238.89c228.16,-53.55 429.01,-39.75 649.24,40.33 64.47,24.25 99.1,44.96 117.6,56.07 18.5,11.11 20.88,12.63 -29.81,68.08 -50.69,55.45 -154.44,164.84 -205.03,220.06 -50.59,55.22 -48.03,56.26 -80.75,50.21 -327.14,-52.71 -600.65,20.79 -724.43,358.25 -193.99,528.86 418.73,1007.8 904.5,623.49 110.45,-87.38 191.39,-151.15 340.97,-100.13 159.55,54.42 205.2,248.5 514.07,238.86 53.43,-1.67 266.92,-48.51 283.23,-42.12 25.33,9.92 272.69,309.27 270.32,340.07 -3.93,51.14 -326.04,137.18 -383.33,144.93 -219.85,29.76 -507.46,-27.57 -700.76,-135.89 -90.81,-50.88 -125.58,-15.84 -220.4,30.93 -292.49,144.27 -534.2,160.34 -844.3,47.7 -616.52,-223.94 -823.61,-1048.2 -437.76,-1561.79 140.52,-187.03 320.27,-317.06 546.64,-379.05z"/>
  </g>
  <g id="_1307019768720">
   <path class="fil1 str0" d="M16948.64 15573.05c290.15,-357.83 810.26,-319.52 1189.01,-139.33 55.13,26.22 8.88,55.54 -31.4,105.22 -26.86,33.12 -192.2,253.22 -222.45,255.77 -59.96,5.06 -174.28,-95.97 -395.55,-42.87 -248.47,59.62 -274.27,254.05 -466.76,395.93 -303.58,223.76 -302.34,194.68 -734.42,394.41 -34.26,15.84 -17.82,-26.11 -11.48,-64 5.19,-31.08 56,-380.79 58.73,-384.45 2.02,-2.71 117.29,-60.92 132.11,-69.8 193.34,-115.82 341.18,-277.98 482.21,-450.88z"/>
   <path class="fil1 str0" d="M16130.55 15327.08c228.16,-53.55 429.01,-39.75 649.24,40.33 64.47,24.25 99.1,44.96 117.6,56.07 18.5,11.11 20.88,12.63 -29.81,68.08 -50.69,55.45 -154.44,164.84 -205.03,220.06 -50.59,55.22 -48.03,56.26 -80.75,50.21 -327.14,-52.71 -600.65,20.79 -724.43,358.25 -193.99,528.86 418.73,1007.8 904.5,623.49 110.45,-87.38 191.39,-151.15 340.97,-100.13 159.55,54.42 205.2,248.5 514.07,238.86 53.43,-1.67 266.92,-48.51 283.23,-42.12 25.33,9.92 272.69,309.27 270.32,340.07 -3.93,51.14 -326.04,137.18 -383.33,144.93 -219.85,29.76 -507.46,-27.57 -700.76,-135.89 -90.81,-50.88 -125.58,-15.84 -220.4,30.93 -292.49,144.27 -534.2,160.34 -844.3,47.7 -616.52,-223.94 -823.61,-1048.2 -437.76,-1561.79 140.52,-187.03 320.27,-317.06 546.64,-379.05z"/>
  </g>
 </g>
</svg>
