<?xml version="1.0" encoding="UTF-8"?>
<!DOCTYPE svg PUBLIC "-//W3C//DTD SVG 1.1//EN" "http://www.w3.org/Graphics/SVG/1.1/DTD/svg11.dtd">
<!-- Creator: CorelDRAW 2020 (64 Bit) -->
<svg xmlns="http://www.w3.org/2000/svg" xml:space="preserve" width="27.8174mm" height="20.4683mm" version="1.1" style="shape-rendering:geometricPrecision; text-rendering:geometricPrecision; image-rendering:optimizeQuality; fill-rule:evenodd; clip-rule:evenodd"
viewBox="0 0 1092.73 804.04"
 xmlns:xlink="http://www.w3.org/1999/xlink"
 xmlns:xodm="http://www.corel.com/coreldraw/odm/2003">
 <defs>
  <style type="text/css">
   <![CDATA[
    .fil0 {fill:#EDE215}
   ]]>
  </style>
 </defs>
 <g id="Camada_x0020_1">
  <metadata id="CorelCorpID_0Corel-Layer"/>
  <g id="_1307049521712">
   <path class="fil0" d="M612.76 109.2c113.98,-140.56 318.29,-125.51 467.07,-54.73 21.66,10.3 3.49,21.82 -12.33,41.33 -10.55,13.01 -75.5,99.47 -87.38,100.47 -23.55,1.99 -68.46,-37.7 -155.38,-16.84 -97.6,23.42 -107.74,99.8 -183.35,155.53 -119.25,87.9 -118.77,76.47 -288.5,154.93 -13.46,6.22 -7,-10.26 -4.51,-25.14 2.04,-12.21 22,-149.58 23.07,-151.02 0.79,-1.06 46.07,-23.93 51.9,-27.42 75.95,-45.5 134.02,-109.2 189.42,-177.12z"/>
   <path class="fil0" d="M291.4 12.57c89.63,-21.04 168.52,-15.61 255.04,15.84 25.33,9.53 38.93,17.66 46.2,22.03 7.27,4.36 8.2,4.96 -11.71,26.74 -19.91,21.78 -60.67,64.75 -80.54,86.44 -19.87,21.69 -18.87,22.1 -31.72,19.72 -128.51,-20.71 -235.95,8.17 -284.57,140.73 -76.2,207.75 164.49,395.89 355.31,244.92 43.39,-34.32 75.18,-59.37 133.94,-39.33 62.67,21.38 80.61,97.62 201.94,93.83 20.99,-0.66 104.85,-19.06 111.26,-16.55 9.95,3.9 107.12,121.49 106.19,133.59 -1.54,20.09 -128.08,53.89 -150.58,56.93 -86.36,11.69 -199.34,-10.83 -275.27,-53.38 -35.67,-19.99 -49.33,-6.22 -86.58,12.15 -114.9,56.67 -209.85,62.98 -331.66,18.74 -242.18,-87.97 -323.53,-411.76 -171.96,-613.5 55.2,-73.47 125.81,-124.55 214.73,-148.9z"/>
  </g>
 </g>
</svg>
