<?xml version="1.0" encoding="UTF-8"?>
<!DOCTYPE svg PUBLIC "-//W3C//DTD SVG 1.1//EN" "http://www.w3.org/Graphics/SVG/1.1/DTD/svg11.dtd">
<!-- Creator: CorelDRAW 2020 (64 Bit) -->
<svg xmlns="http://www.w3.org/2000/svg" xml:space="preserve" width="28.0169mm" height="20.6681mm" version="1.1" style="shape-rendering:geometricPrecision; text-rendering:geometricPrecision; image-rendering:optimizeQuality; fill-rule:evenodd; clip-rule:evenodd"
viewBox="0 0 916.47 676.08"
 xmlns:xlink="http://www.w3.org/1999/xlink"
 xmlns:xodm="http://www.corel.com/coreldraw/odm/2003">
 <defs>
  <style type="text/css">
   <![CDATA[
    .str0 {stroke:white;stroke-width:6.54;stroke-miterlimit:22.9256}
    .fil0 {fill:white}
   ]]>
  </style>
 </defs>
 <g id="Camada_x0020_1">
  <metadata id="CorelCorpID_0Corel-Layer"/>
  <g id="_1307047092416">
   <path class="fil0 str0" d="M513.53 94.2c94.91,-117.05 265.05,-104.52 388.94,-45.58 18.03,8.58 2.9,18.17 -10.27,34.42 -8.79,10.83 -62.87,82.83 -72.77,83.67 -19.61,1.66 -57.01,-31.39 -129.39,-14.02 -81.28,19.5 -89.72,83.1 -152.68,129.51 -99.3,73.19 -98.9,63.68 -240.24,129.02 -11.21,5.18 -5.83,-8.54 -3.76,-20.94 1.7,-10.17 18.32,-124.56 19.21,-125.76 0.66,-0.89 38.37,-19.93 43.21,-22.83 63.24,-37.89 111.6,-90.93 157.74,-147.49z"/>
   <path class="fil0 str0" d="M245.93 13.74c74.63,-17.52 140.33,-13 212.37,13.19 21.09,7.93 32.42,14.71 38.47,18.34 6.05,3.63 6.83,4.13 -9.75,22.27 -16.58,18.14 -50.52,53.92 -67.07,71.98 -16.55,18.06 -15.71,18.4 -26.41,16.42 -107.01,-17.24 -196.48,6.8 -236.97,117.19 -63.46,173 136.97,329.66 295.87,203.95 36.13,-28.58 62.61,-49.44 111.54,-32.75 52.19,17.8 67.12,81.29 168.16,78.13 17.48,-0.55 87.31,-15.87 92.65,-13.78 8.29,3.24 89.2,101.17 88.42,111.24 -1.29,16.73 -106.65,44.87 -125.39,47.41 -71.92,9.73 -166,-9.02 -229.23,-44.45 -29.71,-16.64 -41.08,-5.18 -72.1,10.12 -95.68,47.19 -174.74,52.45 -276.18,15.6 -201.67,-73.25 -269.41,-342.88 -143.2,-510.88 45.97,-61.18 104.76,-103.71 178.81,-123.99z"/>
  </g>
 </g>
</svg>
